# xmcd CD database file
#
# Track frame offsets:
#	200
#	15912
#	28887
#	47422
#	63910
#	85085
#	99120
#	109732
#	121787
#	137602
#	152295
#	172997
#
# Disc length: 2540 seconds
#
# Revision: 2
# Processed by: cddbd v1.5PL3 Copyright (c) Steve Scherf et al.
# Submitted via: CDex 1.51
#
DISCID=7b09ea0c
DTITLE=Little Mike and the Tornadoes - Pay Day
DYEAR=1992
DGENRE=Blues
TTITLE0=I should nave Known Better
TTITLE1=Stick with Me
TTITLE2=PayDay
TTITLE3=What about Love?
TTITLE4=Care of the Blues
TTITLE5=85 Miles an Hour
TTITLE6=Taylor Made
TTITLE7=Been a Fool Too Long
TTITLE8=Walkin' the Floor
TTITLE9=Message Machine
TTITLE10=Money
TTITLE11=Shane's Stomp
EXTD=YEAR: 1992
EXTT0=
EXTT1=
EXTT2=
EXTT3=
EXTT4=
EXTT5=
EXTT6=
EXTT7=
EXTT8=
EXTT9=
EXTT10=
EXTT11=
PLAYORDER=
